<svg xmlns="http://www.w3.org/2000/svg" xmlns:xlink="http://www.w3.org/1999/xlink" width="2000" zoomAndPan="magnify" viewBox="0 0 1500 1499.999933" height="2000" preserveAspectRatio="xMidYMid meet" version="1.0"><path fill="#4a86e8" d="M 297.089844 616.949219 L 688.203125 342.449219 C 729.375 319.574219 770.542969 319.574219 811.710938 342.449219 L 1202.824219 616.949219 L 1106.761719 616.949219 L 832.296875 493.425781 C 777.40625 470.550781 722.511719 470.550781 667.617188 493.425781 L 393.152344 616.949219 Z M 297.089844 616.949219 " fill-opacity="1" fill-rule="nonzero"/><path fill="#ffffff" d="M 228.476562 713.023438 L 708.789062 713.023438 C 727.085938 713.023438 738.523438 724.460938 743.097656 747.335938 L 749.957031 795.375 L 756.820312 747.335938 C 761.394531 724.460938 772.832031 713.023438 791.128906 713.023438 L 1271.441406 713.023438 L 1381.226562 795.375 L 900.914062 795.375 C 855.167969 795.375 823.148438 804.523438 804.851562 822.824219 C 768.253906 859.425781 731.660156 859.425781 695.066406 822.824219 C 676.765625 804.523438 644.746094 795.375 599.003906 795.375 L 118.6875 795.375 Z M 228.476562 713.023438 " fill-opacity="1" fill-rule="nonzero"/><path fill="#ffffff" d="M 184.304688 1097.15625 C 182.699219 1097.15625 181.40625 1096.640625 180.429688 1095.609375 C 179.449219 1094.570312 178.960938 1093.359375 178.960938 1091.984375 L 178.960938 982.09375 L 189.648438 982.09375 L 189.648438 1091.984375 C 189.648438 1093.359375 189.132812 1094.570312 188.101562 1095.609375 C 187.070312 1096.640625 185.804688 1097.15625 184.304688 1097.15625 Z M 143.257812 986.234375 C 141.871094 986.234375 140.65625 985.777344 139.617188 984.859375 C 138.585938 983.945312 138.070312 982.734375 138.070312 981.234375 C 138.070312 979.859375 138.585938 978.714844 139.617188 977.796875 C 140.65625 976.871094 141.871094 976.40625 143.257812 976.40625 L 225.367188 976.40625 C 226.742188 976.40625 227.945312 976.871094 228.976562 977.796875 C 230.015625 978.714844 230.539062 979.917969 230.539062 981.40625 C 230.539062 982.90625 230.015625 984.089844 228.976562 984.953125 C 227.945312 985.808594 226.742188 986.234375 225.367188 986.234375 Z M 143.257812 986.234375 " fill-opacity="1" fill-rule="nonzero"/><path fill="#ffffff" d="M 395.78125 976.40625 L 459.09375 976.40625 C 460.46875 976.40625 461.671875 976.898438 462.703125 977.875 C 463.742188 978.855469 464.265625 980.089844 464.265625 981.578125 C 464.265625 983.078125 463.742188 984.289062 462.703125 985.203125 C 461.671875 986.121094 460.46875 986.578125 459.09375 986.578125 L 399.75 986.578125 L 401.46875 983.65625 L 401.46875 1032.125 L 399.578125 1029.875 L 451.328125 1029.875 C 452.703125 1029.875 453.90625 1030.398438 454.9375 1031.4375 C 455.976562 1032.46875 456.5 1033.679688 456.5 1035.0625 C 456.5 1036.554688 455.976562 1037.761719 454.9375 1038.6875 C 453.90625 1039.605469 452.703125 1040.0625 451.328125 1040.0625 L 399.921875 1040.0625 L 401.46875 1038.328125 L 401.46875 1088.015625 L 400.609375 1086.984375 L 459.09375 1086.984375 C 460.46875 1086.984375 461.671875 1087.5 462.703125 1088.53125 C 463.742188 1089.5625 464.265625 1090.773438 464.265625 1092.15625 C 464.265625 1093.648438 463.742188 1094.855469 462.703125 1095.78125 C 461.671875 1096.699219 460.46875 1097.15625 459.09375 1097.15625 L 395.78125 1097.15625 C 394.394531 1097.15625 393.1875 1096.640625 392.15625 1095.609375 C 391.125 1094.570312 390.609375 1093.359375 390.609375 1091.984375 L 390.609375 981.578125 C 390.609375 980.203125 391.125 979 392.15625 977.96875 C 393.1875 976.929688 394.394531 976.40625 395.78125 976.40625 Z M 395.78125 976.40625 " fill-opacity="1" fill-rule="nonzero"/><path fill="#ffffff" d="M 666.9375 989.6875 L 625.015625 1093.875 C 624.554688 1095.03125 623.925781 1095.898438 623.125 1096.46875 C 622.320312 1097.042969 621.398438 1097.328125 620.359375 1097.328125 C 618.753906 1097.328125 617.546875 1096.898438 616.734375 1096.03125 C 615.929688 1095.167969 615.472656 1094.105469 615.359375 1092.84375 C 615.242188 1092.273438 615.300781 1091.585938 615.53125 1090.78125 L 661.078125 979.34375 C 661.648438 978.074219 662.367188 977.183594 663.234375 976.671875 C 664.097656 976.152344 665.101562 975.890625 666.25 975.890625 C 667.394531 975.890625 668.398438 976.210938 669.265625 976.84375 C 670.128906 977.46875 670.789062 978.304688 671.25 979.34375 L 716.625 1090.25 C 716.851562 1090.949219 716.96875 1091.640625 716.96875 1092.328125 C 716.96875 1093.933594 716.445312 1095.167969 715.40625 1096.03125 C 714.375 1096.898438 713.171875 1097.328125 711.796875 1097.328125 C 710.640625 1097.328125 709.628906 1097.015625 708.765625 1096.390625 C 707.910156 1095.757812 707.25 1094.917969 706.78125 1093.875 L 663.828125 989 Z M 635.03125 1062.3125 L 639.34375 1052.140625 L 692.8125 1052.140625 L 694.890625 1062.3125 Z M 635.03125 1062.3125 " fill-opacity="1" fill-rule="nonzero"/><path fill="#ffffff" d="M 942.921875 1086.984375 C 944.304688 1086.984375 945.515625 1087.476562 946.546875 1088.453125 C 947.578125 1089.421875 948.09375 1090.601562 948.09375 1091.984375 C 948.09375 1093.476562 947.578125 1094.710938 946.546875 1095.6875 C 945.515625 1096.667969 944.304688 1097.15625 942.921875 1097.15625 L 881.34375 1097.15625 C 879.84375 1097.15625 878.601562 1096.640625 877.625 1095.609375 C 876.65625 1094.570312 876.171875 1093.359375 876.171875 1091.984375 L 876.171875 981.578125 C 876.171875 980.203125 876.6875 979 877.71875 977.96875 C 878.75 976.929688 880.070312 976.40625 881.6875 976.40625 C 883.070312 976.40625 884.304688 976.929688 885.390625 977.96875 C 886.484375 979 887.03125 980.203125 887.03125 981.578125 L 887.03125 1089.90625 L 883.765625 1086.984375 Z M 942.921875 1086.984375 " fill-opacity="1" fill-rule="nonzero"/><path fill="#ffffff" d="M 1116.789062 1091.8125 C 1116.671875 1093.304688 1116.070312 1094.570312 1114.976562 1095.609375 C 1113.882812 1096.640625 1112.648438 1097.15625 1111.273438 1097.15625 C 1109.65625 1097.15625 1108.359375 1096.640625 1107.382812 1095.609375 C 1106.414062 1094.570312 1105.929688 1093.304688 1105.929688 1091.8125 L 1105.929688 981.75 C 1105.929688 980.261719 1106.445312 979 1107.476562 977.96875 C 1108.507812 976.929688 1109.828125 976.40625 1111.445312 976.40625 C 1112.828125 976.40625 1114.0625 976.929688 1115.148438 977.96875 C 1116.242188 979 1116.789062 980.261719 1116.789062 981.75 Z M 1116.789062 1091.8125 " fill-opacity="1" fill-rule="nonzero"/><path fill="#ffffff" d="M 1320.328125 1098.875 C 1311.585938 1098.988281 1304 1097.609375 1297.5625 1094.734375 C 1291.125 1091.859375 1284.972656 1087.546875 1279.109375 1081.796875 C 1278.535156 1081.339844 1278.046875 1080.765625 1277.640625 1080.078125 C 1277.234375 1079.390625 1277.03125 1078.585938 1277.03125 1077.65625 C 1277.03125 1076.28125 1277.578125 1075.023438 1278.671875 1073.875 C 1279.765625 1072.71875 1281.003906 1072.140625 1282.390625 1072.140625 C 1283.765625 1072.140625 1285.03125 1072.71875 1286.1875 1073.875 C 1290.664062 1078.699219 1295.75 1082.375 1301.4375 1084.90625 C 1307.132812 1087.4375 1313.257812 1088.703125 1319.8125 1088.703125 C 1325.332031 1088.703125 1330.25 1087.84375 1334.5625 1086.125 C 1338.875 1084.398438 1342.296875 1081.921875 1344.828125 1078.703125 C 1347.359375 1075.484375 1348.625 1071.746094 1348.625 1067.484375 C 1348.625 1062.195312 1347.1875 1057.914062 1344.3125 1054.640625 C 1341.4375 1051.359375 1337.640625 1048.65625 1332.921875 1046.53125 C 1328.210938 1044.40625 1322.984375 1042.480469 1317.234375 1040.75 C 1312.515625 1039.367188 1308.023438 1037.78125 1303.765625 1036 C 1299.515625 1034.21875 1295.722656 1032.039062 1292.390625 1029.453125 C 1289.054688 1026.859375 1286.46875 1023.667969 1284.625 1019.875 C 1282.789062 1016.085938 1281.875 1011.484375 1281.875 1006.078125 C 1281.875 999.984375 1283.484375 994.578125 1286.703125 989.859375 C 1289.921875 985.140625 1294.488281 981.433594 1300.40625 978.734375 C 1306.332031 976.039062 1313.207031 974.6875 1321.03125 974.6875 C 1327.8125 974.6875 1334.332031 975.839844 1340.59375 978.140625 C 1346.863281 980.433594 1351.84375 983.824219 1355.53125 988.3125 C 1357.25 990.148438 1358.109375 991.8125 1358.109375 993.3125 C 1358.109375 994.460938 1357.53125 995.609375 1356.375 996.765625 C 1355.226562 997.914062 1353.96875 998.484375 1352.59375 998.484375 C 1351.445312 998.484375 1350.46875 998.085938 1349.65625 997.28125 C 1347.707031 994.867188 1345.238281 992.710938 1342.25 990.8125 C 1339.257812 988.917969 1335.953125 987.453125 1332.328125 986.421875 C 1328.703125 985.382812 1324.9375 984.859375 1321.03125 984.859375 C 1315.625 984.859375 1310.765625 985.695312 1306.453125 987.359375 C 1302.140625 989.027344 1298.742188 991.414062 1296.265625 994.515625 C 1293.796875 997.621094 1292.5625 1001.359375 1292.5625 1005.734375 C 1292.5625 1010.558594 1293.941406 1014.527344 1296.703125 1017.640625 C 1299.460938 1020.746094 1303.082031 1023.304688 1307.5625 1025.3125 C 1312.050781 1027.324219 1316.828125 1029.195312 1321.890625 1030.921875 C 1326.835938 1032.296875 1331.582031 1033.875 1336.125 1035.65625 C 1340.664062 1037.4375 1344.6875 1039.652344 1348.1875 1042.296875 C 1351.695312 1044.945312 1354.457031 1048.28125 1356.46875 1052.3125 C 1358.488281 1056.335938 1359.5 1061.390625 1359.5 1067.484375 C 1359.5 1073.351562 1357.828125 1078.640625 1354.484375 1083.359375 C 1351.148438 1088.070312 1346.578125 1091.804688 1340.765625 1094.5625 C 1334.960938 1097.320312 1328.148438 1098.757812 1320.328125 1098.875 Z M 1320.328125 1098.875 " fill-opacity="1" fill-rule="nonzero"/></svg>