<svg xmlns="http://www.w3.org/2000/svg" viewBox="88 312 1304 807" role="img" aria-label="Tealis">
<path fill="#4a86e8" d="M 297.089844 616.949219 L 688.203125 342.449219 C 729.375 319.574219 770.542969 319.574219 811.710938 342.449219 L 1202.824219 616.949219 L 1106.761719 616.949219 L 832.296875 493.425781 C 777.40625 470.550781 722.511719 470.550781 667.617188 493.425781 L 393.152344 616.949219 Z" fill-rule="nonzero"/>
<path fill="#22252a" d="M 228.476562 713.023438 L 708.789062 713.023438 C 727.085938 713.023438 738.523438 724.460938 743.097656 747.335938 L 749.957031 795.375 L 756.820312 747.335938 C 761.394531 724.460938 772.832031 713.023438 791.128906 713.023438 L 1271.441406 713.023438 L 1381.226562 795.375 L 900.914062 795.375 C 855.167969 795.375 823.148438 804.523438 804.851562 822.824219 C 768.253906 859.425781 731.660156 859.425781 695.066406 822.824219 C 676.765625 804.523438 644.746094 795.375 599.003906 795.375 L 118.6875 795.375 Z" fill-rule="nonzero"/>
<g fill="#000000"><g transform="translate(132.211606, 1097.156477)"><path d="M 52.09375 0 C 50.488281 0 49.195312 -0.515625 48.21875 -1.546875 C 47.238281 -2.585938 46.75 -3.796875 46.75 -5.171875 L 46.75 -115.0625 L 57.4375 -115.0625 L 57.4375 -5.171875 C 57.4375 -3.796875 56.921875 -2.585938 55.890625 -1.546875 C 54.859375 -0.515625 53.59375 0 52.09375 0 Z M 11.046875 -110.921875 C 9.660156 -110.921875 8.445312 -111.378906 7.40625 -112.296875 C 6.375 -113.210938 5.859375 -114.421875 5.859375 -115.921875 C 5.859375 -117.296875 6.375 -118.441406 7.40625 -119.359375 C 8.445312 -120.285156 9.660156 -120.75 11.046875 -120.75 L 93.15625 -120.75 C 94.53125 -120.75 95.734375 -120.285156 96.765625 -119.359375 C 97.804688 -118.441406 98.328125 -117.238281 98.328125 -115.75 C 98.328125 -114.25 97.804688 -113.066406 96.765625 -112.203125 C 95.734375 -111.347656 94.53125 -110.921875 93.15625 -110.921875 Z"/></g></g>
<g fill="#000000"><g transform="translate(374.389668, 1097.156477)"><path d="M 21.390625 -120.75 L 84.703125 -120.75 C 86.078125 -120.75 87.28125 -120.257812 88.3125 -119.28125 C 89.351562 -118.300781 89.875 -117.066406 89.875 -115.578125 C 89.875 -114.078125 89.351562 -112.867188 88.3125 -111.953125 C 87.28125 -111.035156 86.078125 -110.578125 84.703125 -110.578125 L 25.359375 -110.578125 L 27.078125 -113.5 L 27.078125 -65.03125 L 25.1875 -67.28125 L 76.9375 -67.28125 C 78.3125 -67.28125 79.515625 -66.757812 80.546875 -65.71875 C 81.585938 -64.6875 82.109375 -63.476562 82.109375 -62.09375 C 82.109375 -60.601562 81.585938 -59.394531 80.546875 -58.46875 C 79.515625 -57.550781 78.3125 -57.09375 76.9375 -57.09375 L 25.53125 -57.09375 L 27.078125 -58.828125 L 27.078125 -9.140625 L 26.21875 -10.171875 L 84.703125 -10.171875 C 86.078125 -10.171875 87.28125 -9.65625 88.3125 -8.625 C 89.351562 -7.59375 89.875 -6.382812 89.875 -5 C 89.875 -3.507812 89.351562 -2.300781 88.3125 -1.375 C 87.28125 -0.457031 86.078125 0 84.703125 0 L 21.390625 0 C 20.003906 0 18.796875 -0.515625 17.765625 -1.546875 C 16.734375 -2.585938 16.21875 -3.796875 16.21875 -5.171875 L 16.21875 -115.578125 C 16.21875 -116.953125 16.734375 -118.15625 17.765625 -119.1875 C 18.796875 -120.226562 20.003906 -120.75 21.390625 -120.75 Z"/></g></g>
<g fill="#000000"><g transform="translate(610.358165, 1097.156477)"><path d="M 56.578125 -107.46875 L 14.65625 -3.28125 C 14.195312 -2.125 13.566406 -1.257812 12.765625 -0.6875 C 11.960938 -0.113281 11.039062 0.171875 10 0.171875 C 8.394531 0.171875 7.1875 -0.257812 6.375 -1.125 C 5.570312 -1.988281 5.113281 -3.050781 5 -4.3125 C 4.882812 -4.882812 4.941406 -5.570312 5.171875 -6.375 L 50.71875 -117.8125 C 51.289062 -119.082031 52.007812 -119.972656 52.875 -120.484375 C 53.738281 -121.003906 54.742188 -121.265625 55.890625 -121.265625 C 57.035156 -121.265625 58.039062 -120.945312 58.90625 -120.3125 C 59.769531 -119.6875 60.429688 -118.851562 60.890625 -117.8125 L 106.265625 -6.90625 C 106.492188 -6.207031 106.609375 -5.515625 106.609375 -4.828125 C 106.609375 -3.222656 106.085938 -1.988281 105.046875 -1.125 C 104.015625 -0.257812 102.8125 0.171875 101.4375 0.171875 C 100.28125 0.171875 99.269531 -0.140625 98.40625 -0.765625 C 97.550781 -1.398438 96.890625 -2.238281 96.421875 -3.28125 L 53.46875 -108.15625 Z M 24.671875 -34.84375 L 28.984375 -45.015625 L 82.453125 -45.015625 L 84.53125 -34.84375 Z"/></g></g>
<g fill="#000000"><g transform="translate(859.953238, 1097.156477)"><path d="M 82.96875 -10.171875 C 84.351562 -10.171875 85.5625 -9.679688 86.59375 -8.703125 C 87.625 -7.734375 88.140625 -6.554688 88.140625 -5.171875 C 88.140625 -3.679688 87.625 -2.445312 86.59375 -1.46875 C 85.5625 -0.488281 84.351562 0 82.96875 0 L 21.390625 0 C 19.890625 0 18.648438 -0.515625 17.671875 -1.546875 C 16.703125 -2.585938 16.21875 -3.796875 16.21875 -5.171875 L 16.21875 -115.578125 C 16.21875 -116.953125 16.734375 -118.15625 17.765625 -119.1875 C 18.796875 -120.226562 20.117188 -120.75 21.734375 -120.75 C 23.117188 -120.75 24.351562 -120.226562 25.4375 -119.1875 C 26.53125 -118.15625 27.078125 -116.953125 27.078125 -115.578125 L 27.078125 -7.25 L 23.8125 -10.171875 Z"/></g></g>
<g fill="#000000"><g transform="translate(1089.712126, 1097.156477)"><path d="M 27.078125 -5.34375 C 26.960938 -3.851562 26.359375 -2.585938 25.265625 -1.546875 C 24.171875 -0.515625 22.9375 0 21.5625 0 C 19.945312 0 18.648438 -0.515625 17.671875 -1.546875 C 16.703125 -2.585938 16.21875 -3.851562 16.21875 -5.34375 L 16.21875 -115.40625 C 16.21875 -116.894531 16.734375 -118.15625 17.765625 -119.1875 C 18.796875 -120.226562 20.117188 -120.75 21.734375 -120.75 C 23.117188 -120.75 24.0625 -120.226562 25.148438 -119.1875 C 26.242188 -118.15625 27.078125 -116.894531 27.078125 -115.40625 Z"/></g></g>
<g fill="#000000"><g transform="translate(1270.829423, 1097.156477)"><path d="M 49.5 1.71875 C 40.757812 1.832031 33.171875 0.453125 26.734375 -2.421875 C 20.296875 -5.296875 14.144531 -9.609375 8.28125 -15.359375 C 7.707031 -15.816406 7.21875 -16.390625 6.8125 -17.078125 C 6.40625 -17.765625 6.203125 -18.570312 6.203125 -19.5 C 6.203125 -20.875 6.75 -22.132812 7.84375 -23.28125 C 8.9375 -24.4375 10.175781 -25.015625 11.5625 -25.015625 C 12.9375 -25.015625 14.203125 -24.4375 15.359375 -23.28125 C 19.835938 -18.457031 24.921875 -14.78125 30.609375 -12.25 C 36.304688 -9.71875 42.429688 -8.453125 48.984375 -8.453125 C 54.503906 -8.453125 59.421875 -9.3125 63.734375 -11.03125 C 68.046875 -12.757812 71.46875 -15.234375 74 -18.453125 C 76.53125 -21.671875 77.796875 -25.410156 77.796875 -29.671875 C 77.796875 -34.960938 76.359375 -39.242188 73.484375 -42.515625 C 70.609375 -45.796875 66.8125 -48.5 62.09375 -50.625 C 57.382812 -52.75 52.15625 -54.675781 46.40625 -56.40625 C 41.6875 -57.789062 37.195312 -59.375 32.9375 -61.15625 C 28.6875 -62.9375 24.894531 -65.117188 21.5625 -67.703125 C 18.226562 -70.296875 15.640625 -73.488281 13.796875 -77.28125 C 11.960938 -81.070312 11.046875 -85.671875 11.046875 -91.078125 C 11.046875 -97.171875 12.65625 -102.578125 15.875 -107.296875 C 19.09375 -112.015625 23.660156 -115.722656 29.578125 -118.421875 C 35.503906 -121.117188 42.378906 -122.46875 50.203125 -122.46875 C 56.984375 -122.46875 63.503906 -121.316406 69.765625 -119.015625 C 76.035156 -116.722656 81.015625 -113.332031 84.703125 -108.84375 C 86.421875 -107.007812 87.28125 -105.34375 87.28125 -103.84375 C 87.28125 -102.695312 86.703125 -101.546875 85.546875 -100.390625 C 84.398438 -99.242188 83.140625 -98.671875 81.765625 -98.671875 C 80.617188 -98.671875 79.640625 -99.070312 78.828125 -99.875 C 76.878906 -102.289062 74.410156 -104.445312 71.421875 -106.34375 C 68.429688 -108.238281 65.125 -109.703125 61.5 -110.734375 C 57.875 -111.773438 54.109375 -112.296875 50.203125 -112.296875 C 44.796875 -112.296875 39.9375 -111.460938 35.625 -109.796875 C 31.3125 -108.128906 27.914062 -105.742188 25.4375 -102.640625 C 22.96875 -99.535156 21.734375 -95.796875 21.734375 -91.421875 C 21.734375 -86.597656 23.113281 -82.628906 25.875 -79.515625 C 28.632812 -76.410156 32.253906 -73.851562 36.734375 -71.84375 C 41.222656 -69.832031 46 -67.960938 51.0625 -66.234375 C 56.007812 -64.859375 60.753906 -63.28125 65.296875 -61.5 C 69.835938 -59.71875 73.859375 -57.503906 77.359375 -54.859375 C 80.867188 -52.210938 83.628906 -48.875 85.640625 -44.84375 C 87.660156 -40.820312 88.671875 -35.765625 88.671875 -29.671875 C 88.671875 -23.804688 87 -18.515625 83.65625 -13.796875 C 80.320312 -9.085938 75.75 -5.351562 69.9375 -2.59375 C 64.132812 0.164062 57.320312 1.601562 49.5 1.71875 Z"/></g></g>
</svg>
